<svg height="512" viewBox="0 0 64 64" width="512" xmlns="http://www.w3.org/2000/svg"><g id="Filled_outline" data-name="Filled outline"><path d="m44 25-9 7h-6l-9-7v-18h24z" fill="#f9bb4b"/><g fill="#fcf05a"><circle cx="32" cy="19" r="8"/><path d="m18 3h28v4h-28z"/><path d="m29 32h6v8h-6z"/></g><path d="m24 40h16a2 2 0 0 1 2 2v3a0 0 0 0 1 0 0h-20a0 0 0 0 1 0 0v-3a2 2 0 0 1 2-2z" fill="#f9bb4b"/><path d="m20 15v-4h-6a2 2 0 0 0 -2 2v8a2 2 0 0 0 2 2h6v-4h-4v-4z" fill="#fcf05a"/><path d="m44 19v4h6a2 2 0 0 0 2-2v-8a2 2 0 0 0 -2-2h-6v4h4v4z" fill="#fcf05a"/><path d="m10 45h44v12h-44z" fill="#e97424"/><path d="m15 61h-12l3-6-3-6h7v8h5z" fill="#ba5c1c"/><path d="m49 61h12l-3-6 3-6h-7v8h-5z" fill="#ba5c1c"/><path d="m14 49h36v4h-36z" fill="#fcf05a"/><path d="m37.122 12.857a7.243 7.243 0 0 0 -3.122 6.143 7.243 7.243 0 0 0 3.122 6.143 8 8 0 0 0 0-12.286z" fill="#e8d83f"/><path d="m24 19a7.983 7.983 0 0 0 2.878 6.143 7.243 7.243 0 0 0 3.122-6.143 7.243 7.243 0 0 0 -3.122-6.143 7.983 7.983 0 0 0 -2.878 6.143z" fill="#e8d83f"/><path d="m2.149 61.525a1 1 0 0 0 .851.475h12a1 1 0 0 0 1-1v-3h32v3a1 1 0 0 0 1 1h12a1 1 0 0 0 .9-1.447l-2.782-5.553 2.782-5.553a1 1 0 0 0 -.9-1.447h-6v-3a1 1 0 0 0 -1-1h-11v-2a3 3 0 0 0 -3-3h-4v-6.511l9-7v-1.489h5a3 3 0 0 0 3-3v-8a3 3 0 0 0 -3-3h-5v-2h2v-6h-30v6h2v2h-5a3 3 0 0 0 -3 3v8a3 3 0 0 0 3 3h5v1.489l9 7v6.511h-4a3 3 0 0 0 -3 3v2h-11a1 1 0 0 0 -1 1v3h-6a1 1 0 0 0 -.895 1.447l2.777 5.553-2.777 5.553a1 1 0 0 0 .044.972zm57.233-11.525-2.277 4.553a1 1 0 0 0 0 .894l2.277 4.553h-9.382v-2h4a1 1 0 0 0 1-1v-7zm-14.382-34h2v2h-2zm5-4a1 1 0 0 1 1 1v8a1 1 0 0 1 -1 1h-5v-2h3a1 1 0 0 0 1-1v-4a1 1 0 0 0 -1-1h-3v-2zm-31-8h26v2h-26zm0 14h-2v-2h2zm-5 4a1 1 0 0 1 -1-1v-8a1 1 0 0 1 1-1h5v2h-3a1 1 0 0 0 -1 1v4a1 1 0 0 0 1 1h3v2zm7-14h22v16.511l-8.343 6.489h-5.314l-8.343-6.489zm9 25h4v6h-4zm-7 9a1 1 0 0 1 1-1h16a1 1 0 0 1 1 1v2h-18zm-12 4h42v10h-42zm-4.1 9.447a1 1 0 0 0 0-.894l-2.282-4.553h4.382v7a1 1 0 0 0 1 1h4v2h-9.382z"/><path d="m51 48h-38v6h38zm-2 4h-34v-2h34z"/><path d="m41 19a9 9 0 1 0 -9 9 9.01 9.01 0 0 0 9-9zm-2 0a6.972 6.972 0 0 1 -1.951 4.836 6.439 6.439 0 0 1 -2.049-4.836 6.439 6.439 0 0 1 2.049-4.836 6.972 6.972 0 0 1 1.951 4.836zm-3.534-6.074a8.713 8.713 0 0 0 0 12.148 6.95 6.95 0 0 1 -6.932 0 8.713 8.713 0 0 0 0-12.148 6.95 6.95 0 0 1 6.932 0zm-10.466 6.074a6.972 6.972 0 0 1 1.951-4.836 6.439 6.439 0 0 1 2.049 4.836 6.439 6.439 0 0 1 -2.049 4.836 6.972 6.972 0 0 1 -1.951-4.836z"/><path d="m21.5 29.307h2.001v5.385h-2.001z" transform="matrix(.371 -.928 .928 .371 -15.568 41.006)"/><path d="m19.807 36h5.385v2.001h-5.385z" transform="matrix(.928 -.371 .371 .928 -12.132 11.003)"/><path d="m38.807 31h5.385v2.001h-5.385z" transform="matrix(.928 -.371 .371 .928 -8.916 17.701)"/><path d="m40.5 34.307h2.001v5.385h-2.001z" transform="matrix(.371 -.928 .928 .371 -8.266 61.79)"/></g></svg>